<svg id="Capa_1" enable-background="new 0 0 511.482 511.482" height="512" viewBox="0 0 511.482 511.482" width="512" xmlns="http://www.w3.org/2000/svg"><g><g><g><g><path d="m361.113 239.875c-31.228 35.347-47.598 46.595-44.745 97.585-37.931 53.244-130.473 59.032-179.885 16.876 0 16.738 0 96.424.001 96.424-.602 22.059 9.519 42.51 22.003 60.115h352.995v-100.371c-76.377-25.633-133.055-92.2-150.369-170.629z" fill="#e8ab4c"/></g><g><g><path d="m296.345 357.898c16.598-7.453 31.11-18.477 41.511-33.076 0-37.862 10.968-37.5 29.444-58.67-.774-2.957-5.527-23.283-6.188-26.277-31.228 35.347-47.598 46.595-44.745 97.585-5.589 7.847-12.372 14.654-20.022 20.438z" fill="#e1763a"/></g><g><path d="m175.973 498.237c-12.485-17.605-18.001-29.064-18.001-60.115 0 0-.001-40.355-.001-69.662-7.758-3.884-14.998-8.586-21.489-14.124 0 16.738 0 96.424.001 96.424-.602 22.059 9.519 42.51 22.003 60.115h352.995v-12.638z" fill="#e1763a"/></g></g><g><path d="m11.444 55.882c-15.275 40.988 15.469 73.661 65.148 94.044-.743 1.235 3.239-36.447 20.906-60.123 0 0-10.627-31.26-51.132-34.165z" fill="#f0d5b3"/></g><g><path d="m76.592 149.926c-.021-.009-.041-.017-.062-.026.015.058.035.072.062.026z" fill="#e8bc85"/></g><g><g><path d="m94.028 21.006c-8.292-8.572-19.762-13.357-31.676-13.047-29.515.173-39.685 25.341-50.901 47.872l34.915-.243c40.505 2.905 51.132 34.165 51.132 34.165 9.951-14.912 23.06-27.429 37.985-37.308-.001-.001-21.995-11.389-41.455-31.439z" fill="#e8ab4c"/></g></g><g><path d="m131.807 48.849-23.969 21.371c-.878-5.53-19.78-37.271-60.44-34.1 8.508-13.029 24.531-21.825 42.419-18.913-22.716-17.985-53.869-8.49-66.105 15.199-4.617 7.485-8.341 15.556-12.262 23.425l24.725-.172c15.036-1.28 32.812 3.441 42.04 10.481 8.432 5.856 15.483 14.035 19.282 23.613 2.263-3.381 4.694-6.649 7.273-9.795 8.744-10.669 19.182-19.881 30.712-27.514 0 0 1.401-.407-3.675-3.595z" fill="#e1763a"/></g><g><g><path d="m76.592 149.875c-.021-.009-.041-.017-.062-.026.015.058.035.071.062.026z" fill="#e8bc85"/></g><g><path d="m76.676 147.362c-.001 0-.002-.001-.003-.002.382-3.555 1.48-10.534 3.651-18.911-15.518-7.528-28.642-16.401-38.356-26.469-11.111-11.516-14.306-28.726-7.422-43.172.519-1.09 1.064-2.15 1.63-3.169l-24.732.192c-15.203 42.922 16.233 73.483 65.087 94.07-.003-.013-.005-.036-.007-.054.002.001.005.002.007.003-.058-.745.043-1.382.145-2.488z" fill="#e8bc85"/></g></g><g><path d="m424.765 55.831c15.275 40.988-15.469 73.661-65.148 94.044.743 1.235-3.239-36.447-20.906-60.123 0 0 10.627-31.26 51.132-34.165z" fill="#f0d5b3"/></g><g><g><path d="m424.765 55.831h-23.298c4.301 11.541 4.936 22.419 2.545 32.553-6.358 10.422-16.135 19.831-28.477 28.103-3.096-12.28-8.522-27.792-17.44-39.742 0 0 2.768-8.106 10.822-16.447-23.4 9.502-30.205 29.455-30.205 29.455 8.508 11.402 13.842 26.051 17.003 38.037h-.001c1.995 8.177 3.516 14.249 3.965 22.06 14.717-6.077 29.017-13.591 41.438-23.604-.001 0-.001.001-.002.001 23.298-18.869 33.961-42.747 23.65-70.416z" fill="#e8bc85"/></g><g><path d="m359.678 149.849c-.021.009-.041.017-.062.026.028.045.048.032.062-.026z" fill="#e8bc85"/></g></g><g><g><path d="m338.711 89.738s10.627-31.26 51.132-34.165l34.915.243c-.561-1.505-1.177-3.02-1.863-4.547-11.736-21.06-20.834-43.249-49.039-43.324-11.913-.311-23.384 4.475-31.676 13.047-19.46 20.049-41.454 31.438-41.454 31.438s25.449 13.806 37.985 37.308z" fill="#e8ab4c"/></g></g><g><g><path d="m370.502 59.656c12.357-5.953 40.842-3.614 54.256-3.841-1.643-4.766-4.467-9.122-6.8-13.581h-.004c-1.215-2.223-2.434-4.427-3.686-6.573-29.686-.483-56.456-3.058-75.542 18.471-7.823-7.267-15.316-12.104-18.618-14.09-7.251 5.223-12.265 8.487-19.383 12.386 0 0 25.448 13.807 37.985 37.309 7.304-19.628 30.006-29.413 31.792-30.081z" fill="#e1763a"/></g></g><g><path d="m218.487 329.875-68.09 34.45c39.448 23.682 95.912 23.78 135.63.469z" fill="#f0d5b3"/></g><g><path d="m263.848 353.327c-28.824 10.443-62.507 10.378-91.23-.245l-22.221 11.242c39.448 23.682 95.912 23.78 135.63.469z" fill="#e8bc85"/></g><g><g><path d="m278.487 173.406v66.469c1.257 6.59 7.933 28.025 7.522 34.423 0 6.915-1.924 13.694-5.556 19.579l-31.37 50.828 37.42 19.603 29.865-26.848c-2.566-49.029 12.681-64.369 44.745-97.585l.139-38.401-15.248-21.599c-28.932-38.63-63.685-11.329-67.517-6.469z" fill="#f0d5b3"/></g></g><g><path d="m280.426 338.744 22.482-38.082c3.632-5.885 5.555-19.45 5.556-26.365.411-6.398-6.264-27.832-7.521-34.423v-66.469c1.737-2.203 9.824-9.014 20.842-12.209-21.365-6.724-40.51 8.674-43.297 12.209v66.469c1.257 6.59 7.933 28.025 7.521 34.423 0 6.915-1.924 13.694-5.556 19.579l-31.37 50.828 37.42 19.603 18.664-12.786z" fill="#e8bc85"/></g><g><path d="m300.858 52.444h-164.37c-58.236 35.822-61.485 90.981-60.764 149.03l15.248-21.599c28.932-38.63 63.684-11.329 67.516-6.469v66.469c-1.257 6.59-7.933 28.025-7.522 34.423 0 6.915 1.924 13.694 5.556 19.579l31.37 50.828 30.596-14.83 30.596 14.83 31.37-50.828c3.632-5.885 5.555-12.664 5.556-19.579.411-6.398-6.264-27.832-7.521-34.423v-66.469c3.832-4.86 38.584-32.161 67.516 6.469l15.248 21.599c-.002 0 9.113-106.285-60.395-149.03z" fill="#e8ab4c"/></g><g><g><path d="m361.599 169.455-7.523-10.656c-21.891-32.086-65.517-27.39-82.212-7.371v21.978c3.447-4.372 37.572-26.892 65.452-3.258-.075-.014-.15-.032-.225-.046 6.724 5.143 18.897 24.28 24.16 31.371 0 0 .014-.174.036-.476l.336.476c.092-7.395.119-24.75-.024-32.018z" fill="#e1763a"/></g><g><path d="m197.271 318.181c-10.782-15.462-25.13-37.277-25.13-43.874 0-8.994 5.254-19.981 6.102-24.426v-90.143c-12.76-19.927-54.895-31.935-78.21-16.646 7.227-39.789 31.5-68.387 72.109-90.648h-35.655c-47.228 29.05-58.292 70.819-60.402 116.533 0 0-.479 22.937-.362 32.497l15.248-21.599c18.341-24.49 41.832-22.482 57.549-16.492 5.718 2.179 9.517 7.628 9.577 13.746.191 19.525.39 62.746.39 62.746-.814 4.27-3.902 14.767-5.864 23.372-2.947 10.316-1.882 21.501 3.898 30.63 0 0 31.37 50.828 31.37 50.828l30.596-14.83 30.596 14.83 10.441-16.917-41.037-19.89z" fill="#e1763a"/></g></g><g><g><path d="m158.487 173.406v66.469c-1.257 6.59-7.933 28.025-7.522 34.423 0 6.915 1.924 13.694 5.556 19.579l31.37 50.828-37.42 19.603-29.865-26.848c2.566-49.029-12.681-64.369-44.745-97.585l-.139-38.401 15.248-21.599c28.933-38.63 63.685-11.329 67.517-6.469z" fill="#f0d5b3"/></g></g><g><path d="m177.15 327.301-22.777 11.932-12.69-11.408c2.566-49.029-12.681-64.369-44.745-97.585l-.138-57.205c-4.334 4.211-17.376 23.219-21.077 28.439l.139 38.401c9.424 9.833 19.116 19.515 27.295 30.327 13.443 16.553 19.453 40.009 17.449 67.258l29.865 26.848 37.42-19.603z" fill="#e8bc85"/></g><g><path d="m218.487 284.875-30-18.002 9.277-19.445h41.893l8.83 19.445z" fill="#78777c"/></g><g><path d="m206.336 277.583 14.386-30.155h-22.958l-9.277 19.445z" fill="#58575b"/></g><g><circle cx="143.487" cy="179.875" fill="#e8ab4c" r="15"/></g><g><circle cx="293.487" cy="179.875" fill="#e8ab4c" r="15"/></g><g><path d="m233.487 179.875c0 8.284-6.716 15-15 15s-15-6.716-15-15 15-60 15-60 15 51.716 15 60z" fill="#7c3f2c"/></g><g><path d="m308.487 104.875c0 8.284-21.716 15-30 15s-15-6.716-15-15 6.716-15 15-15 30 6.716 30 15z" fill="#7c3f2c"/></g><g><path d="m128.447 104.875c0 8.284 21.716 15 30 15s15-6.716 15-15-6.716-15-15-15-30 6.716-30 15z" fill="#7c3f2c"/></g><g><path d="m377.181 287.941c-9.916 4.879-16.746 15.073-16.773 26.865-.037 16.366 13.408 29.947 29.773 30.069 6.961.052 13.378-2.268 18.492-6.198l-3.205-4.072c-9.961-12.655-18.511-26.359-25.497-40.869z" fill="#7c3f2c"/></g><g><path d="m449.312 378.136c-25.924 37.931 33.057 70.759 51.727 29.071-18.842-6.51-36.379-16.348-51.727-29.071z" fill="#7c3f2c"/></g><g><path d="m157.982 404.875h15v15h-15z" fill="#fff"/></g><g><path d="m157.982 434.874h15v15h-15z" fill="#fff"/></g><g><circle cx="390.482" cy="404.875" fill="#7c3f2c" r="15"/></g><g><circle cx="315.482" cy="412.375" fill="#7c3f2c" r="22.245"/></g><g><circle cx="405.482" cy="479.875" fill="#7c3f2c" r="22.245"/></g></g></g><g><path d="m301.632 240.129 13.871 5.711c1.58-3.859 4.023-8.064 6.3-11.504l-12.043-8.941c-.774 1.041-6.539 10.81-8.128 14.734z"/><path d="m328.797 202.197c-3.187 3.54-6.481 7.2-9.634 10.963l11.5 9.632c3.128-3.734 6.481-7.446 9.731-11.06l-11.148-10.034z"/><path d="m122.344 245.84 13.87-5.711c-2.145-5.162-4.959-10.092-8.128-14.736l-12.041 8.945c.476.639 5.14 8.638 6.299 11.502z"/><path d="m108.602 201.698-11.15 10.034c3.252 3.613 6.604 7.326 9.734 11.06l11.498-9.633c-3.307-3.945-6.734-7.739-10.082-11.461z"/><path d="m218.487 202.375c12.407 0 22.5-10.093 22.5-22.5-2.118-20.059-16.406-64.88-22.5-86.924-6.072 21.958-20.405 66.946-22.5 86.924 0 12.407 10.094 22.5 22.5 22.5zm0-54.654c4.246 15.791 7.471 29.092 7.5 32.157-.001 4.134-3.366 7.497-7.5 7.497-4.136 0-7.5-3.364-7.5-7.497.029-3.065 3.254-16.366 7.5-32.157z"/><path d="m278.487 127.375c49.658-4.799 49.608-40.217-.001-45-29.666.779-29.664 44.224.001 45zm0-30c6.194 0 18.271 4.284 21.866 7.5-3.596 3.216-15.672 7.5-21.866 7.5-9.856-.176-9.855-14.825 0-15z"/><path d="m158.447 82.375c-49.658 4.798-49.608 40.217.001 45 29.667-.779 29.664-44.225-.001-45zm0 30c-6.194 0-18.271-4.284-21.866-7.5 3.596-3.216 15.672-7.5 21.866-7.5 9.856.175 9.856 14.825 0 15z"/><path d="m398.959 118.273 9.898 11.271c4.233-3.718 8.055-7.621 11.357-11.599l-11.541-9.581c-2.801 3.376-6.069 6.709-9.714 9.909z"/><path d="m510.584 402.47c-72.762-26.586-125.451-89.26-141.967-163.596.035-28.005 1.733-56.534-.862-84.177 10.157-4.327 19.552-9.379 27.978-15.069l-8.395-12.431c-6.553 4.425-13.782 8.436-21.563 11.983-2.915-17.69-8.179-34.639-17.47-50.188 5.69-8.32 20.174-25.658 42.103-25.658l9.551-.245-9.551-14.755c-25.327 0-42.386 16.302-51.168 27.589-6.592-8.236-14.616-15.967-24.351-23.083 8.565-5.508 21.075-14.523 32.813-26.618 6.903-7.14 16.474-11.073 26.267-10.761 21.931-.935 31.5 19.075 42.656 39.732 6.51 12.108 5.953 29.787-.379 41.887l13.336 6.867c8.49-16.82 9.479-38.776-.071-56.435-11.997-21.456-22.494-46.677-55.415-47.05-13.898-.348-27.421 5.248-37.166 15.323-15.445 15.914-32.805 26.25-37.988 29.162h-161.549c-5.171-2.897-22.47-13.178-37.974-29.152-9.754-10.088-23.307-15.682-37.175-15.335-32.925.375-43.412 25.594-55.414 47.051-20.856 46.91 7.752 83.23 62.718 107.602-2.644 28.79-.702 58.475-.816 87.602 12.851 14.877 30.525 32.026 37.511 46.374l13.386-6.77c-7.459-15.172-22.744-30.455-35.903-45.298-.045-11.193-.315-22.143-.472-33.211 10.497-14.462 22.228-37.015 41.601-36.536-12.179 17.531 6.002 41.171 26.131 33.811v38.035c-2.416 10.032-8.249 30.164-7.521 35.384.038 8.24 2.343 16.296 6.673 23.311l27.427 44.438-26.276 13.35c-8.016-5.606-15.521-12.488-22.677-20.742.627-14.763-.357-26.548-3.064-36.888l-14.511 3.8c2.694 9.71 3.311 23.74 2.286 38.224 4.743 5.788 9.91 11.472 15.137 16.311v90.227c0 23.113 7.643 46.02 21.521 64.502h18.01s-24.531-26.929-24.531-64.502v-78.163c54.03 37.018 140.984 26.268 180.561-28.376-3.414-42.711 8.376-57.96 33.521-84.91 2.744 10.211 6.147 20.248 10.199 29.915-35.559 27.657-1.351 82.976 39.369 63.458 9.795 11.317 20.668 21.716 32.462 31.056-20.511 43.067 39.117 76.553 65.274 36.815.178.067 5.738-13.86 5.738-13.86zm-495.233-322.754c-.78-11.733 1.243-20.533 7.833-30.843 11.247-20.748 19.199-33.441 39.363-33.416 9.707-.253 19.228 3.669 26.099 10.773 11.979 12.342 24.768 21.482 33.341 26.954-9.776 7.207-17.806 15.04-24.389 23.381-8.627-11.299-25.856-28.232-51.666-28.232l-8.611 14.82 8.611.18c22.647 0 37.359 18.497 42.637 26.449-9.077 15.459-14.22 32.281-17.071 49.823-33.879-15.168-55.647-38.137-56.147-59.889zm128.136 107.659c-9.856-.177-9.856-14.825 0-15 9.896.308 9.832 14.793 0 15zm19.417 102.562c-3.007-4.842-4.491-10.434-4.454-16.122.095-6.559 6.109-25.441 7.537-33.232v-60.709c0-7.237-3.438-13.683-8.763-17.802l.001-.002c-23.153-14.328-51.888-16.47-73.935 15.679 1.131-46.66 9.867-88.899 55.348-117.806h160.067c45.64 29.002 54.28 71.462 55.362 118.351-21.728-32.413-51.078-30.789-74.32-16.224l.002.003c-5.325 4.119-8.763 10.564-8.763 17.801v60.709c1.446 8.078 7.62 26.842 7.522 33.713 0 5.527-1.534 10.936-4.439 15.64l-28.06 45.465-20.023-10.137v-36.144l32.095-19.259-13.594-29.934h-51.456l-14.249 29.868 32.205 19.325v36.152l-20.003 10.163zm130.583-117.562c9.855.175 9.856 14.826 0 15-9.834-.21-9.893-14.692 0-15zm-75 103.753-20.295-12.179 4.304-9.021h32.33l4.067 8.956zm-51.692 88.423 51.698-26.267 51.923 26.286c-28.818 13.746-74.78 13.829-103.621-.019zm178.829-118.649c-24.904 27.502-38.858 42.911-36.894 88.961-7.17 8.269-14.701 15.159-22.756 20.771l-26.533-13.433 27.395-44.386c4.329-7.015 6.635-15.072 6.673-23.312.739-5.201-5.116-25.384-7.521-35.384v-38.035c20.136 7.362 38.307-16.287 26.133-33.809 19.535-.504 31.399 22.577 41.965 37.051-.157 10.895-.42 21.673-.466 32.693-2.776 3.119-5.422 6.041-7.996 8.883zm28.626 53.293c6.525 13.082 14.245 25.497 23.03 37.105-21.968 8.022-36.833-23.528-23.03-37.105zm98.727 119.882c-15.404.298-26.725-16.149-21.058-30.415 12.118 8.396 25.067 15.727 38.723 21.838-4.205 5.299-10.7 8.577-17.665 8.577z"/><path d="m412.982 404.875c-.78-29.669-44.225-29.663-45 .001.78 29.668 44.225 29.662 45-.001zm-30 0c.176-9.857 14.825-9.855 15 0-.176 9.857-14.825 9.855-15 0z"/><path d="m315.482 382.63c-39.223 1.031-39.215 58.464.001 59.489 39.223-1.03 39.215-58.464-.001-59.489zm0 44.49c-19.444-.511-19.44-28.982 0-29.489 19.444.51 19.44 28.981 0 29.489z"/><path d="m405.482 450.13c-39.223 1.031-39.215 58.464.001 59.489 39.223-1.03 39.215-58.464-.001-59.489zm0 44.49c-19.444-.511-19.44-28.982 0-29.489 19.444.51 19.44 28.981 0 29.489z"/></g></g></svg>